<svg width="64" height="64" viewBox="0 0 64 64" fill="none" xmlns="http://www.w3.org/2000/svg">
  <rect width="64" height="64" rx="18" fill="#FFFFFF" stroke="rgba(99,93,255,0.16)" stroke-width="2" />
  <circle cx="32" cy="32" r="22" fill="url(#paint0_linear)" />
  <path d="M24 22H40C41.1046 22 42 22.8954 42 24C42 25.1046 41.1046 26 40 26H30.6L39.2 38.2C39.898 39.194 39.6567 40.5738 38.6627 41.2718C37.6687 41.9697 36.289 41.7284 35.591 40.7344L24.8 25.2C24.2718 24.4426 23.9411 23.5733 23.8303 22.6653C23.8104 22.5021 23.8015 22.3437 23.8038 22.1867C23.8046 22.1243 23.8464 22 24 22Z" fill="white" opacity="0.82" />
  <defs>
    <linearGradient id="paint0_linear" x1="12" y1="10" x2="52" y2="54" gradientUnits="userSpaceOnUse">
      <stop stop-color="#96A7FF" />
      <stop offset="1" stop-color="#63DDD6" />
    </linearGradient>
  </defs>
</svg>
