<svg width="64" height="64" viewBox="0 0 64 64" fill="none" xmlns="http://www.w3.org/2000/svg">
  <defs>
    <linearGradient id="paint0_linear" x1="10" y1="8" x2="54" y2="56" gradientUnits="userSpaceOnUse">
      <stop stop-color="#7C5CFF" />
      <stop offset="1" stop-color="#3DD9D6" />
    </linearGradient>
    <linearGradient id="paint1_linear" x1="16" y1="18" x2="46" y2="46" gradientUnits="userSpaceOnUse">
      <stop stop-color="rgba(255,255,255,0.92)" />
      <stop offset="1" stop-color="rgba(255,255,255,0.48)" />
    </linearGradient>
  </defs>
  <rect x="1.5" y="1.5" width="61" height="61" rx="18" fill="#090B12" />
  <rect x="1.5" y="1.5" width="61" height="61" rx="18" stroke="rgba(255,255,255,0.06)" stroke-width="3" />
  <rect x="4" y="4" width="56" height="56" rx="16" fill="url(#paint0_linear)" opacity="0.36" />
  <path d="M19 21.5C19 19.567 20.567 18 22.5 18H45.5C46.3284 18 47 18.6716 47 19.5C47 20.3284 46.3284 21 45.5 21H25.3L44.4 42.4C45.0556 43.13 45.0045 44.2378 44.2745 44.8934C43.5445 45.5491 42.4367 45.4979 41.7811 44.7679L19.4 19.7679C19.144 19.4819 19 19.1282 19 18.7607V21.5Z" fill="url(#paint1_linear)" />
  <path d="M18 42.5C18 44.433 19.567 46 21.5 46H44.5C45.3284 46 46 45.3284 46 44.5C46 43.6716 45.3284 43 44.5 43H24.7L43.8 21.6C44.4556 20.87 44.4045 19.7622 43.6745 19.1066C42.9445 18.4509 41.8367 18.5021 41.1811 19.2321L18.8 44.2321C18.544 44.5181 18.4 44.8718 18.4 45.2393V42.5Z" fill="white" fill-opacity="0.75" />
</svg>
